<svg xmlns="http://www.w3.org/2000/svg" width="192" height="192" viewBox="0 0 192 192">
  <rect width="192" height="192" rx="42" fill="#16a34a"/>
  <g transform="translate(35,35) scale(5.083333333333333)">
    <!-- Wheat icon (lucide-react Wheat path approximation) -->
    <path d="M11 2l.5 1M12.5 3l.5-1M4.93 4.93l.7.7M19.07 4.93l-.7.7" stroke="white" stroke-width="1.8" stroke-linecap="round" fill="none"/>
    <path d="M12 22V12" stroke="white" stroke-width="1.8" stroke-linecap="round"/>
    <path d="M12 12c0 0-4-2.5-4-6 0 0 2-1 4 0 2-1 4 0 4 0 0 3.5-4 6-4 6z" fill="white" stroke="white" stroke-width="0.5" stroke-linejoin="round"/>
    <path d="M12 16c0 0-3-1.5-3-4 0 0 1.5-.8 3 0 1.5-.8 3 0 3 0 0 2.5-3 4-3 4z" fill="white" stroke="white" stroke-width="0.5" stroke-linejoin="round"/>
    <path d="M9 20c1-1 3-2 3-2s2 1 3 2" stroke="white" stroke-width="1.5" stroke-linecap="round" fill="none"/>
  </g>
</svg>